<svg xmlns="http://www.w3.org/2000/svg" viewBox="0 0 1364 960"><linearGradient id="a" x1="397.472" x2="448.492" y1="141.57" y2="215.197" gradientUnits="userSpaceOnUse"><stop offset="0" stop-color="#c4e6ff"/><stop offset="1" stop-color="#73b2ff"/></linearGradient><path fill="url(#a)" d="M469.565 164.815h-3.543a46.27 46.27 0 0 0-4.948-12.912l2.938-2.938c4.389-4.389 4.389-11.505 0-15.895-4.389-4.389-11.505-4.389-15.895 0l-2.509 2.509a45.986 45.986 0 0 0-12.621-5.633l-.004-.001v-4.154c0-6.207-5.032-11.239-11.239-11.239-6.207 0-11.24 5.032-11.24 11.239v3.544a46.252 46.252 0 0 0-12.911 4.948l-2.938-2.937c-4.389-4.389-11.506-4.389-15.895 0-4.389 4.389-4.389 11.506 0 15.895l2.508 2.508a45.99 45.99 0 0 0-5.635 12.623l-.001.003h-4.152c-6.208 0-11.239 5.032-11.239 11.239s5.032 11.239 11.239 11.239h3.541a46.283 46.283 0 0 0 4.948 12.914l-2.936 2.936c-4.389 4.389-4.389 11.506 0 15.895 4.389 4.389 11.506 4.389 15.895 0l2.5-2.5.003.002a46.65 46.65 0 0 0 12.632 5.635v4.143c0 6.208 5.032 11.24 11.239 11.24 6.207 0 11.239-5.032 11.239-11.24v-3.541a46.267 46.267 0 0 0 12.913-4.949l2.936 2.936c4.389 4.389 11.506 4.389 15.895 0 4.389-4.389 4.389-11.506 0-15.895l-2.501-2.501v-.001a46.656 46.656 0 0 0 5.635-12.633h4.145c6.207 0 11.239-5.032 11.239-11.239s-5.031-11.24-11.238-11.24zm-15.578 10.02c0 18.477-14.988 33.465-33.465 33.465-18.477 0-33.465-14.988-33.465-33.465 0-18.488 14.988-33.465 33.465-33.465 18.477 0 33.465 14.977 33.465 33.465z"/><linearGradient id="b" x1="397.474" x2="448.494" y1="141.569" y2="215.196" gradientUnits="userSpaceOnUse"><stop offset="0" stop-color="#c4e6ff"/><stop offset="1" stop-color="#73b2ff"/></linearGradient><path fill="url(#b)" d="M399.371 174.835c0 11.681 9.469 21.151 21.151 21.151 11.681 0 21.161-9.47 21.161-21.151s-9.48-21.161-21.161-21.161c-11.682 0-21.151 9.48-21.151 21.161z"/><linearGradient id="c" x1="428.747" x2="462.928" y1="539.756" y2="589.085" gradientTransform="rotate(5.957 3153.01 -584.397)" gradientUnits="userSpaceOnUse"><stop offset="0" stop-color="#c4e6ff"/><stop offset="1" stop-color="#73b2ff"/></linearGradient><path fill="url(#c)" d="m373.409 271.971-2.361-.246a31.014 31.014 0 0 0-2.401-8.947l2.161-1.754a7.53 7.53 0 1 0-9.488-11.696l-1.846 1.498a30.794 30.794 0 0 0-8.019-4.63l-.003-.001.288-2.768a7.53 7.53 0 0 0-14.979-1.561l-.246 2.361a30.98 30.98 0 0 0-8.947 2.4l-1.754-2.161a7.53 7.53 0 1 0-11.696 9.488l1.497 1.846a30.786 30.786 0 0 0-4.631 8.02l-.001.002-2.767-.288a7.53 7.53 0 1 0-1.561 14.979l2.36.246a30.963 30.963 0 0 0 2.401 8.949l-2.16 1.752a7.53 7.53 0 1 0 9.488 11.696l1.839-1.492.002.001a31.271 31.271 0 0 0 8.026 4.632l-.288 2.761a7.53 7.53 0 1 0 14.979 1.561l.246-2.359a31.027 31.027 0 0 0 8.949-2.401l1.753 2.16a7.53 7.53 0 1 0 11.696-9.488l-1.493-1.84a31.248 31.248 0 0 0 4.632-8.027l2.762.288a7.53 7.53 0 0 0 8.27-6.709 7.53 7.53 0 0 0-6.708-8.272zm-11.077 5.596c-1.283 12.313-12.311 21.259-24.624 19.977-12.313-1.283-21.26-12.311-19.977-24.624 1.284-12.32 12.311-21.26 24.624-19.977 12.313 1.283 21.261 12.304 19.977 24.624z"/><linearGradient id="d" x1="428.748" x2="462.93" y1="539.755" y2="589.083" gradientTransform="rotate(5.957 3153.01 -584.397)" gradientUnits="userSpaceOnUse"><stop offset="0" stop-color="#c4e6ff"/><stop offset="1" stop-color="#73b2ff"/></linearGradient><path fill="url(#d)" d="M325.938 273.774c-.811 7.784 4.842 14.752 12.626 15.563 7.784.811 14.759-4.841 15.57-12.625.811-7.784-4.848-14.759-12.632-15.571-7.785-.81-14.753 4.849-15.564 12.633z"/><path fill="#3A67B3" d="M381.511 763.34a1.067 1.067 0 0 0 .192-2.117c-.022-.004-2.309-.429-6.224-1.305a1.068 1.068 0 0 0-.465 2.083c3.957.885 6.279 1.316 6.301 1.32.066.013.131.019.196.019zM362.499 758.943a381.1 381.1 0 0 1-12.423-3.506 1.067 1.067 0 1 1 .614-2.045c4.081 1.227 8.237 2.4 12.354 3.487a1.068 1.068 0 0 1-.545 2.064zm-24.713-7.441a339.118 339.118 0 0 1-12.139-4.383 1.067 1.067 0 1 1 .765-1.993 336.707 336.707 0 0 0 12.061 4.355 1.067 1.067 0 1 1-.687 2.021zm-24.093-9.256a260.178 260.178 0 0 1-11.716-5.42 1.069 1.069 0 0 1 .946-1.915 260.273 260.273 0 0 0 11.62 5.376 1.067 1.067 0 1 1-.85 1.959zm-23.136-11.47A183.085 183.085 0 0 1 279.543 724a1.067 1.067 0 1 1 1.184-1.777 181.276 181.276 0 0 0 10.885 6.696 1.067 1.067 0 0 1-.529 1.995 1.033 1.033 0 0 1-.526-.138zm-21.474-14.405c-3.491-2.796-6.747-5.698-9.678-8.624a1.067 1.067 0 1 1 1.509-1.511c2.876 2.871 6.074 5.721 9.504 8.468a1.069 1.069 0 0 1-1.335 1.667zm-18.237-18.388c-2.699-3.565-5.043-7.261-6.965-10.985a1.069 1.069 0 0 1 1.898-.98c1.866 3.615 4.144 7.207 6.771 10.676a1.068 1.068 0 0 1-1.704 1.289zm-11.772-23.085a61.675 61.675 0 0 1-2.199-12.836 1.068 1.068 0 1 1 2.131-.137c.267 4.19.981 8.358 2.122 12.391a1.068 1.068 0 0 1-2.054.582zm11.2-14.316a1.067 1.067 0 1 1 .381-2.101c4.171.755 8.386.852 12.448.286.58-.075 1.123.326 1.205.91s-.326 1.123-.91 1.205a40.52 40.52 0 0 1-5.58.386 42.262 42.262 0 0 1-7.544-.686zm24.247-4.055a1.068 1.068 0 0 1 .504-1.423c4.177-1.993 7.51-4.444 9.906-7.286a1.066 1.066 0 1 1 1.632 1.376c-2.593 3.076-6.166 5.713-10.619 7.837a1.066 1.066 0 0 1-1.423-.504zm-36.673-.083c-3.809-1.865-7.499-4.253-10.968-7.096a1.067 1.067 0 1 1 1.353-1.651c3.342 2.738 6.893 5.037 10.554 6.83a1.067 1.067 0 0 1-.939 1.917zm.432-6.209a1.068 1.068 0 0 1-.914-1.202c.563-4.148 1.526-8.418 2.861-12.694a1.067 1.067 0 1 1 2.038.636c-1.3 4.161-2.236 8.314-2.784 12.345a1.068 1.068 0 0 1-1.201.915zm-20.6-10.129a74.15 74.15 0 0 1-7.315-10.77 1.067 1.067 0 1 1 1.864-1.042 71.974 71.974 0 0 0 7.103 10.46 1.067 1.067 0 1 1-1.652 1.352zm72.695-2.241a1.069 1.069 0 0 1-1.022-1.112c.011-.265.018-.53.018-.795.001-3.625-1.065-7.391-3.082-10.892a1.068 1.068 0 0 1 1.85-1.066c2.204 3.825 3.368 7.96 3.367 11.958 0 .295-.006.59-.019.885a1.068 1.068 0 0 1-1.112 1.022zm-44.726-12.114a1.069 1.069 0 0 1-.401-1.456c2.434-4.286 5.318-7.661 8.573-10.033a1.067 1.067 0 1 1 1.258 1.726c-3.008 2.192-5.69 5.342-7.973 9.362a1.066 1.066 0 0 1-1.457.401zm-40.676-8.252a85.467 85.467 0 0 1-3.468-12.527 1.068 1.068 0 0 1 2.095-.413 83.476 83.476 0 0 0 3.381 12.213 1.067 1.067 0 1 1-2.008.727zm72.927-1.363c-3.621-2.401-7.587-3.717-11.469-3.806a1.068 1.068 0 0 1-1.043-1.092c.014-.59.509-1.037 1.092-1.043 4.286.099 8.643 1.538 12.6 4.162a1.069 1.069 0 0 1-.59 1.957c-.204 0-.409-.057-.59-.178zm-77.97-24.056a93.73 93.73 0 0 1-.118-4.698c0-2.735.12-5.522.358-8.284a1.066 1.066 0 1 1 2.126.183 95.051 95.051 0 0 0-.35 8.1c0 1.535.039 3.08.115 4.591.03.589-.423 1.09-1.012 1.12l-.054.001a1.065 1.065 0 0 1-1.065-1.013zm2.993-24.541a1.068 1.068 0 0 1-.819-1.268 112.54 112.54 0 0 1 3.472-12.491 1.069 1.069 0 0 1 2.022.688 110.099 110.099 0 0 0-3.406 12.252 1.067 1.067 0 0 1-1.269.819zm8.004-24.362a1.069 1.069 0 0 1-.52-1.418 136.424 136.424 0 0 1 6.008-11.465 1.068 1.068 0 1 1 1.843 1.079 134.52 134.52 0 0 0-5.914 11.285 1.066 1.066 0 0 1-1.417.519zm12.756-22.265a1.068 1.068 0 0 1-.257-1.488 170.758 170.758 0 0 1 7.859-10.262 1.069 1.069 0 0 1 1.646 1.36 167.094 167.094 0 0 0-7.76 10.132 1.065 1.065 0 0 1-1.488.258zm16.26-19.831a1.069 1.069 0 0 1 .027-1.51c2.961-2.857 6.297-5.643 9.917-8.283a1.068 1.068 0 1 1 1.258 1.725c-3.541 2.582-6.802 5.306-9.692 8.094a1.066 1.066 0 0 1-1.51-.026zm20.405-15.357a1.066 1.066 0 0 1 .391-1.458 157.29 157.29 0 0 1 11.459-5.971 1.067 1.067 0 1 1 .91 1.931 154.966 154.966 0 0 0-11.302 5.89 1.064 1.064 0 0 1-1.458-.392zm23.108-11.16a1.069 1.069 0 0 1 .601-1.385 251.576 251.576 0 0 1 12.131-4.417 1.067 1.067 0 1 1 .68 2.024 248.714 248.714 0 0 0-12.027 4.38 1.065 1.065 0 0 1-1.385-.602zm24.321-8.324a1.067 1.067 0 0 1 .728-1.322c3.991-1.157 8.18-2.29 12.452-3.369a1.067 1.067 0 0 1 .523 2.07 373.576 373.576 0 0 0-12.38 3.349 1.066 1.066 0 0 1-1.323-.728zm24.917-6.388a1.068 1.068 0 0 1 .81-1.274c4.075-.903 8.321-1.79 12.619-2.633a1.065 1.065 0 0 1 1.253.842 1.066 1.066 0 0 1-.841 1.253c-4.281.84-8.51 1.723-12.567 2.624a1.07 1.07 0 0 1-1.274-.812zm25.232-5.02a1.069 1.069 0 0 1 .868-1.236 714.02 714.02 0 0 1 12.711-2.101 1.076 1.076 0 0 1 1.22.89 1.069 1.069 0 0 1-.89 1.22 711.482 711.482 0 0 0-12.674 2.094 1.066 1.066 0 0 1-1.235-.867zm25.412-4.017a1.067 1.067 0 0 1 .909-1.206 954.02 954.02 0 0 1 12.766-1.702c.592-.076 1.12.34 1.193.925a1.067 1.067 0 0 1-.925 1.193 954.219 954.219 0 0 0-12.738 1.698 1.068 1.068 0 0 1-1.205-.908zm25.521-3.268a1.067 1.067 0 0 1 .939-1.182c4.226-.485 8.494-.951 12.799-1.4a1.074 1.074 0 0 1 1.172.951 1.07 1.07 0 0 1-.951 1.173c-4.298.448-8.558.914-12.777 1.398a1.07 1.07 0 0 1-1.182-.94zm25.586-2.696a1.067 1.067 0 0 1 .961-1.164c4.242-.404 8.516-.793 12.819-1.17a1.067 1.067 0 1 1 .186 2.126c-4.298.377-8.566.765-12.803 1.169a1.07 1.07 0 0 1-1.163-.961zm25.628-2.262a1.068 1.068 0 0 1 .978-1.15c4.253-.343 8.53-.676 12.831-.997a1.069 1.069 0 0 1 .16 2.13c-4.296.321-8.57.653-12.819.996l-.087.003a1.069 1.069 0 0 1-1.063-.982zm25.655-1.935a1.067 1.067 0 0 1 .991-1.139c4.261-.297 8.541-.587 12.837-.869a1.068 1.068 0 1 1 .14 2.131 3180.437 3180.437 0 0 0-12.905.871 1.068 1.068 0 0 1-1.063-.994zm25.67-1.697a1.067 1.067 0 0 1 1-1.131c4.267-.265 8.549-.524 12.842-.778a1.068 1.068 0 0 1 .127 2.131 4771.38 4771.38 0 0 0-12.904.78c-.56 0-1.03-.436-1.065-1.002zm25.681-1.527a1.069 1.069 0 0 1 1.005-1.127c4.262-.243 8.533-.483 12.811-.72a1.056 1.056 0 0 1 1.125 1.007 1.067 1.067 0 0 1-1.007 1.125c-4.276.237-8.546.477-12.807.72l-.062.001a1.067 1.067 0 0 1-1.065-1.006zm25.642-1.428a1.068 1.068 0 0 1 1.008-1.125l12.861-.698a1.081 1.081 0 0 1 1.124 1.008 1.069 1.069 0 0 1-1.008 1.124l-12.86.698-.059.001a1.067 1.067 0 0 1-1.066-1.008zm25.745-1.397a1.068 1.068 0 0 1 1.008-1.124l12.843-.701c.589-.014 1.092.419 1.125 1.008a1.069 1.069 0 0 1-1.008 1.125l-12.844.701-.058.001c-.565 0-1.035-.44-1.066-1.01zm25.687-1.413a1.069 1.069 0 0 1 1.006-1.126c4.287-.241 8.567-.486 12.84-.735a1.047 1.047 0 0 1 1.128 1.003 1.068 1.068 0 0 1-1.003 1.128c-4.276.249-8.557.494-12.844.736l-.061.001a1.068 1.068 0 0 1-1.066-1.007zm25.682-1.495a1.067 1.067 0 0 1 1.001-1.13c4.289-.262 8.568-.528 12.834-.801a1.067 1.067 0 1 1 .137 2.13 4096.057 4096.057 0 0 1-12.907.803 1.065 1.065 0 0 1-1.065-1.002zm25.673-1.639a1.068 1.068 0 0 1 .993-1.137c4.292-.292 8.568-.592 12.826-.901.587-.037 1.099.4 1.142.988.042.588-.4 1.1-.988 1.142a2843.599 2843.599 0 0 1-12.909.904 1.07 1.07 0 0 1-1.064-.996zm25.66-1.854a1.067 1.067 0 0 1 .981-1.147c4.294-.335 8.566-.68 12.814-1.038.572-.032 1.104.387 1.154.974a1.07 1.07 0 0 1-.974 1.154c-4.253.358-8.529.704-12.828 1.038a1.067 1.067 0 0 1-1.147-.981zm25.635-2.145a1.068 1.068 0 0 1 .966-1.161c4.295-.392 8.562-.798 12.797-1.22a1.068 1.068 0 1 1 .211 2.125c-4.24.422-8.512.829-12.813 1.222a1.068 1.068 0 0 1-1.161-.966zm25.602-2.535a1.067 1.067 0 0 1 .946-1.177c4.293-.467 8.551-.953 12.768-1.458a1.058 1.058 0 0 1 1.187.933 1.067 1.067 0 0 1-.932 1.187c-4.225.506-8.489.992-12.792 1.46a1.066 1.066 0 0 1-1.177-.945zm25.546-3.038a1.067 1.067 0 0 1 .919-1.198c4.29-.566 8.532-1.154 12.726-1.765a1.074 1.074 0 0 1 1.211.902 1.068 1.068 0 0 1-.902 1.211 938.738 938.738 0 0 1-12.756 1.769 1.066 1.066 0 0 1-1.198-.919zm25.459-3.692a1.068 1.068 0 0 1 .883-1.225c4.32-.701 8.579-1.43 12.659-2.168a1.068 1.068 0 0 1 .379 2.1 707.734 707.734 0 0 1-12.697 2.175 1.066 1.066 0 0 1-1.224-.882zm25.318-4.548a1.066 1.066 0 0 1 .834-1.258 525.7 525.7 0 0 0 12.547-2.699 1.069 1.069 0 0 1 .476 2.082 530.04 530.04 0 0 1-12.598 2.709 1.066 1.066 0 0 1-1.259-.834zm25.08-5.684a1.067 1.067 0 0 1 .766-1.301 380.18 380.18 0 0 0 12.356-3.416 1.067 1.067 0 1 1 .605 2.047 381.957 381.957 0 0 1-12.426 3.435 1.066 1.066 0 0 1-1.301-.765zm24.665-7.234a1.068 1.068 0 0 1 .667-1.355 259.509 259.509 0 0 0 12.007-4.413 1.069 1.069 0 0 1 .789 1.985 261.098 261.098 0 0 1-12.107 4.449 1.067 1.067 0 0 1-1.356-.666zm23.884-9.411a1.068 1.068 0 0 1 .512-1.42 167.232 167.232 0 0 0 11.32-5.84 1.067 1.067 0 1 1 1.053 1.857 169.206 169.206 0 0 1-11.465 5.915 1.065 1.065 0 0 1-1.42-.512zm22.304-12.544a1.067 1.067 0 0 1 .258-1.487c3.569-2.513 6.891-5.16 9.873-7.867a1.067 1.067 0 0 1 1.435 1.58c-3.047 2.766-6.438 5.468-10.079 8.032a1.065 1.065 0 0 1-1.487-.258zm18.927-16.947a1.067 1.067 0 0 1-.158-1.502c2.689-3.326 5.038-6.835 6.981-10.428a1.067 1.067 0 1 1 1.878 1.016c-2.006 3.708-4.428 7.326-7.199 10.754a1.064 1.064 0 0 1-.831.396 1.06 1.06 0 0 1-.671-.236zm12.519-22.185a1.068 1.068 0 0 1-.638-1.369 114.254 114.254 0 0 0 3.698-12.173 1.068 1.068 0 0 1 2.075.503 116.087 116.087 0 0 1-3.768 12.401 1.068 1.068 0 0 1-1.367.638zm6.227-24.873a1.066 1.066 0 0 1-.941-1.18c.393-3.492.592-7.018.593-10.478 0-.735-.009-1.468-.027-2.199a1.068 1.068 0 0 1 1.042-1.093l.027-.001c.578 0 1.052.461 1.067 1.042a96.188 96.188 0 0 1-.58 12.968 1.067 1.067 0 0 1-1.181.941zm-1.56-26.436a92.803 92.803 0 0 0-2.919-12.303 1.069 1.069 0 0 1 2.04-.632 94.919 94.919 0 0 1 2.986 12.586 1.067 1.067 0 0 1-1.054 1.242c-.515 0-.967-.37-1.053-.893zm-7.447-24.13a111.7 111.7 0 0 0-5.935-11.217 1.067 1.067 0 0 1 1.828-1.102 113.585 113.585 0 0 1 6.048 11.432 1.067 1.067 0 1 1-1.941.887zm-13.05-21.756a147.526 147.526 0 0 0-8.079-9.85 1.067 1.067 0 1 1 1.592-1.422 150.67 150.67 0 0 1 8.197 9.991 1.069 1.069 0 0 1-1.71 1.281zm-16.938-19.032a198.506 198.506 0 0 0-9.485-8.558 1.068 1.068 0 0 1 1.381-1.63 201.185 201.185 0 0 1 9.586 8.65 1.068 1.068 0 1 1-1.482 1.538zm-19.474-16.54a262.084 262.084 0 0 0-10.401-7.453 1.067 1.067 0 1 1 1.201-1.765 265.687 265.687 0 0 1 10.487 7.514 1.07 1.07 0 0 1-.644 1.92c-.225 0-.451-.071-.643-.216zm-21.144-14.425a335.731 335.731 0 0 0-11.021-6.531 1.067 1.067 0 1 1 1.053-1.857 335.48 335.48 0 0 1 11.092 6.573 1.069 1.069 0 0 1-1.124 1.815zm-22.279-12.658a408.931 408.931 0 0 0-11.457-5.755 1.067 1.067 0 1 1 .929-1.922 413.226 413.226 0 0 1 11.517 5.785 1.067 1.067 0 1 1-.989 1.892zm-23.083-11.165a490.507 490.507 0 0 0-11.773-5.092 1.069 1.069 0 0 1 .822-1.971 492.931 492.931 0 0 1 11.823 5.114c.538.241.779.873.538 1.411a1.069 1.069 0 0 1-1.41.538zm-23.674-9.886a568.54 568.54 0 0 0-12.011-4.514 1.067 1.067 0 1 1 .729-2.007 576.397 576.397 0 0 1 12.057 4.531 1.068 1.068 0 0 1-.775 1.99zm-24.12-8.764a649.19 649.19 0 0 0-12.194-4.002 1.067 1.067 0 1 1 .646-2.035 661.15 661.15 0 0 1 12.236 4.014 1.069 1.069 0 0 1-.688 2.023zm-24.466-7.765a709.969 709.969 0 0 0-12.341-3.537 1.067 1.067 0 1 1 .57-2.057 723.103 723.103 0 0 1 12.377 3.547 1.067 1.067 0 0 1-.606 2.047zm-24.741-6.856a781.503 781.503 0 0 0-12.457-3.109 1.068 1.068 0 0 1-.788-1.288 1.07 1.07 0 0 1 1.288-.787 799.439 799.439 0 0 1 12.49 3.117 1.068 1.068 0 0 1-.533 2.067zm-24.963-6.013a818.545 818.545 0 0 0-12.55-2.707 1.067 1.067 0 0 1 .434-2.091c4.21.874 8.443 1.787 12.584 2.714a1.068 1.068 0 0 1-.468 2.084zm-25.142-5.221a853.277 853.277 0 0 0-12.596-2.319 1.069 1.069 0 0 1 .371-2.103c4.184.738 8.432 1.52 12.627 2.324a1.069 1.069 0 0 1-.402 2.098zm-25.236-4.454a886.658 886.658 0 0 0-12.681-1.952 1.068 1.068 0 0 1 .31-2.113c4.244.622 8.483 1.275 12.712 1.958a1.066 1.066 0 1 1-.341 2.107zm-25.401-3.724a913.644 913.644 0 0 0-12.755-1.592 1.066 1.066 0 0 1-.935-1.184c.068-.586.605-1.017 1.184-.935 4.266.5 8.528 1.032 12.786 1.594a1.068 1.068 0 0 1-.28 2.117zm-25.543-2.999c-4.274-.44-8.548-.849-12.818-1.227a1.068 1.068 0 0 1-.97-1.157 1.074 1.074 0 0 1 1.157-.969c4.281.379 8.565.788 12.849 1.229a1.068 1.068 0 0 1-.218 2.124zm-25.615-2.265c-4.282-.316-8.557-.6-12.824-.853a1.066 1.066 0 0 1-1.002-1.129 1.05 1.05 0 0 1 1.129-1.002 893.2 893.2 0 0 1 12.854.854 1.068 1.068 0 0 1-.157 2.13zM552.632 107.757a1.068 1.068 0 0 0 .046-2.135 931.201 931.201 0 0 0-6.405-.256 1.083 1.083 0 0 0-1.106 1.028 1.069 1.069 0 0 0 1.028 1.106 863.531 863.531 0 0 1 6.437.257z"/><linearGradient id="e" x1="550.051" x2="583.946" y1="102.813" y2="102.813" gradientUnits="userSpaceOnUse"><stop offset="0" stop-color="#326ab3"/><stop offset="1" stop-color="#003780"/></linearGradient><path fill="url(#e)" d="m583.946 109.348-33.895 2.059 10.187-17.189z"/><linearGradient id="f" x1="553.996" x2="491.695" y1="109.092" y2="109.092" gradientUnits="userSpaceOnUse"><stop offset="0" stop-color="#326ab3"/><stop offset="1" stop-color="#003780"/></linearGradient><path fill="url(#f)" d="m552.7 116.832-44.156-12.985 54.733-2.495z"/><linearGradient id="g" x1="568.805" x2="483.426" y1="88.005" y2="88.005" gradientUnits="userSpaceOnUse"><stop offset="0" stop-color="#326ab3"/><stop offset="1" stop-color="#003780"/></linearGradient><path fill="url(#g)" d="m508.501 103.793 68.004-31.575-9.689 15.74z"/><linearGradient id="h" x1="508.544" x2="583.946" y1="98.528" y2="98.528" gradientUnits="userSpaceOnUse"><stop offset="0" stop-color="#326ab3"/><stop offset="1" stop-color="#003780"/></linearGradient><path fill="url(#h)" d="m508.544 103.847 54.849-2.348 20.553 7.849-17.128-21.641z"/><linearGradient id="i" x1="896.585" x2="801.114" y1="235.309" y2="385.291" gradientUnits="userSpaceOnUse"><stop offset="0" stop-color="#326ab3"/><stop offset="1" stop-color="#003780"/></linearGradient><path fill="url(#i)" d="M863.005 317.736c-10.738 13.413-5.321 36.04-15.605 50.385-6.244 8.012-15.762 8.046-24.158 9.9-14.802 4.672-31.132 10.78-43.65 23.346-5.465 6.206-9.403 14.571-15.547 19.586-2.573-6.628-4.58-15.047-5.404-23.806.097-.215.202-.436.306-.649 4.097-8.361 10.474-15.799 19.411-19.069 8.136-2.979 17.76-2.823 24.704-8.56 3.8-3.139 6.004-7.664 8.187-11.973 2.258-4.447 4.693-8.592 8.552-11.84 6.436-5.425 15.338-8.697 19.621-16.351 2.608-4.673 2.59-10.104 3.22-15.271.348-2.891.948-5.764 2.31-8.362 1.162-2.217 2.748-4.167 4.509-5.932 3.475-3.483 7.544-6.301 11.073-9.727 3.583-3.473 6.297-7.642 8.247-12.227 4.254-10.013 4.908-20.995 6.623-31.609 1.555-9.602 4.106-19.808 10.592-27.361.22-.257.447-.511.678-.757 1.431.441 2.817 1.3 4.115 2.635 9.448 12.62-5.682 31.895-5.918 46.9 1.38 17.17 8.293 28.835-9.001 40.327-4.458 3.125-9.261 5.786-12.865 10.415z"/><linearGradient id="j" x1="878.904" x2="783.433" y1="224.054" y2="374.035" gradientUnits="userSpaceOnUse"><stop offset="0" stop-color="#326ab3"/><stop offset="1" stop-color="#003780"/></linearGradient><path fill="url(#j)" d="M875.402 245.578c-1.715 10.614-2.368 21.596-6.623 31.609-1.95 4.584-4.663 8.754-8.247 12.227-3.528 3.426-7.597 6.244-11.073 9.727-1.762 1.766-3.347 3.715-4.509 5.932-1.362 2.598-1.962 5.471-2.31 8.362-.629 5.168-.612 10.598-3.22 15.271-4.283 7.653-13.185 10.926-19.621 16.351-3.859 3.247-6.294 7.393-8.552 11.84-2.183 4.308-4.387 8.834-8.187 11.973-6.943 5.738-16.567 5.581-24.704 8.56-8.937 3.27-15.314 10.708-19.411 19.069-.103.213-.209.434-.306.649a39.314 39.314 0 0 1-.116-1.334c-1.631-20.296 3.213-42.012 22.141-47.315 9.73-.404 17.794.213 20.075-14.647 6.487-24.08 4.981-51.171 30.263-56.844 11.059-3.297 29.052-3.193 34.581-18.653 1.346-6.421-.353-12.797.815-19.228 1.26-11.545 10.981-23.673 19.515-21.862.251.045.503.111.757.198a23.16 23.16 0 0 0-.678.757c-6.484 7.55-9.034 17.755-10.59 27.358z"/><path fill="#FFF" d="M875.402 245.578c-1.715 10.614-2.368 21.596-6.623 31.609-1.95 4.584-4.663 8.754-8.247 12.227-3.528 3.426-7.597 6.244-11.073 9.727-1.762 1.766-3.347 3.715-4.509 5.932-1.362 2.598-1.962 5.471-2.31 8.362-.629 5.168-.612 10.598-3.22 15.271-4.283 7.653-13.185 10.926-19.621 16.351-3.859 3.247-6.294 7.393-8.552 11.84-2.183 4.308-4.387 8.834-8.187 11.973-6.943 5.738-16.567 5.581-24.704 8.56-8.937 3.27-15.314 10.708-19.411 19.069-.103.213-.209.434-.306.649a39.314 39.314 0 0 1-.116-1.334 50.703 50.703 0 0 1 3.406-5.82c2.377-3.487 5.252-6.65 8.657-9.145 3.625-2.654 7.712-4.305 12.047-5.418 4.423-1.13 8.981-1.81 13.281-3.379 4.919-1.786 8.679-4.881 11.44-9.336 2.699-4.361 4.484-9.244 7.517-13.411 2.556-3.505 6.014-6.11 9.585-8.502 3.731-2.491 7.665-4.791 10.887-7.951 3.918-3.835 5.483-8.559 6.073-13.925.567-5.193.738-10.506 3.475-15.121 2.425-4.086 6.164-7.159 9.769-10.152 3.98-3.303 7.8-6.658 10.578-11.074 2.952-4.706 4.76-10.027 6.006-15.406 3.762-16.186 2.827-37.039 14.669-49.911.251.045.503.111.757.198a23.16 23.16 0 0 0-.678.757c-6.484 7.552-9.034 17.757-10.59 27.36z"/><linearGradient id="k" x1="317.801" x2="472.431" y1="363.339" y2="590.375" gradientUnits="userSpaceOnUse"><stop offset="0" stop-color="#ffdd4f"/><stop offset="1" stop-color="#ff8f5c"/></linearGradient><path fill="url(#k)" d="M393.138 428.113c6.3 16.818 29.515 24.058 36.894 40.966 3.854 9.893-1.207 18.458-4.034 26.989-3.724 15.79-6.974 33.721-2.388 51.684 2.649 8.227 8.053 16.238 9.27 24.438-7.328-1.235-15.961-3.937-24.267-7.883a24.131 24.131 0 0 1-.419-.622c-5.316-8.152-8.583-17.857-6.739-27.631 1.678-8.9 6.966-17.458 5.529-26.761-.786-5.091-3.67-9.491-6.371-13.756-2.785-4.406-5.205-8.811-6.056-14.013-1.428-8.681.396-18.425-4.185-26.365-2.801-4.842-7.687-7.731-11.99-11.061-2.409-1.859-4.669-3.935-6.273-6.547-1.369-2.23-2.271-4.696-2.915-7.223-1.269-4.984-1.622-10.145-2.811-15.146-1.202-5.076-3.494-9.742-6.567-13.946-6.715-9.177-16.227-15.638-24.84-22.856-7.79-6.533-15.59-14.283-18.902-24.148-.113-.335-.22-.674-.317-1.014 1.161-1.049 2.675-1.834 4.568-2.286 16.386-1.733 25.6 22.165 38.948 30.404 16.155 7.946 30.328 7.979 31.397 29.655.419 5.673.24 11.41 2.468 17.122z"/><linearGradient id="l" x1="303.27" x2="457.9" y1="373.236" y2="600.272" gradientUnits="userSpaceOnUse"><stop offset="0" stop-color="#ffdd4f"/><stop offset="1" stop-color="#ff8f5c"/></linearGradient><path fill="url(#l)" d="M334.976 378.38c8.613 7.218 18.125 13.68 24.84 22.856 3.074 4.203 5.366 8.87 6.567 13.946 1.189 5.001 1.542 10.162 2.811 15.146.643 2.527 1.545 4.993 2.915 7.223 1.604 2.613 3.863 4.689 6.273 6.547 4.303 3.33 9.19 6.219 11.99 11.061 4.581 7.94 2.757 17.684 4.185 26.365.852 5.202 3.271 9.607 6.056 14.013 2.701 4.265 5.585 8.665 6.371 13.756 1.438 9.304-3.851 17.862-5.529 26.761-1.844 9.774 1.423 19.479 6.739 27.631.136.207.278.419.419.622a44.2 44.2 0 0 1-1.26-.61c-19.097-9.392-36.006-25.359-30.641-45.193 4.842-8.953 9.711-15.864-2.413-25.862-18.152-18.707-43.284-31.846-34.853-57.583 2.956-11.694 12.674-27.796 1.749-41.03-5.046-4.644-11.68-6.528-16.83-11.018-9.692-7.308-15.382-22.524-9.191-29.219.175-.202.369-.393.582-.574.097.339.205.679.317 1.014 3.313 9.865 11.113 17.615 18.903 24.148z"/><path fill="#FFF" d="M334.976 378.38c8.613 7.218 18.125 13.68 24.84 22.856 3.074 4.203 5.366 8.87 6.567 13.946 1.189 5.001 1.542 10.162 2.811 15.146.643 2.527 1.545 4.993 2.915 7.223 1.604 2.613 3.863 4.689 6.273 6.547 4.303 3.33 9.19 6.219 11.99 11.061 4.581 7.94 2.757 17.684 4.185 26.365.852 5.202 3.271 9.607 6.056 14.013 2.701 4.265 5.585 8.665 6.371 13.756 1.438 9.304-3.851 17.862-5.529 26.761-1.844 9.774 1.423 19.479 6.739 27.631.136.207.278.419.419.622a44.2 44.2 0 0 1-1.26-.61 53.346 53.346 0 0 1-3.404-6.171c-1.86-4-3.162-8.273-3.58-12.666-.443-4.675.26-9.228 1.58-13.716 1.352-4.576 3.179-9.033 4.071-13.733 1.028-5.373.26-10.404-2.263-15.266-2.472-4.757-5.901-8.972-8.021-13.924-1.78-4.171-2.269-8.669-2.506-13.154-.241-4.683-.202-9.446-1.316-14.029-1.348-5.569-4.752-9.502-9.256-12.902-4.359-3.287-9.039-6.283-11.718-11.21-2.371-4.363-3.131-9.365-3.89-14.203-.837-5.34-1.806-10.566-4.285-15.422-2.646-5.168-6.457-9.638-10.62-13.635-12.521-12.037-31.746-22.353-36.969-39.872.175-.202.369-.393.582-.574.097.339.205.679.317 1.014 3.311 9.863 11.111 17.613 18.901 24.146z"/><linearGradient id="m" x1="287.15" x2="456.2" y1="527.902" y2="632.83" gradientUnits="userSpaceOnUse"><stop offset="0" stop-color="#326ab3"/><stop offset="1" stop-color="#003780"/></linearGradient><path fill="url(#m)" d="m421.708 604.98-.791 35.425c-3.161-2.611-6.612-4.918-9.937-7.264-3.272-2.307-6.515-4.711-9.351-7.567-2.885-2.903-5.02-6.232-6.833-9.879-1.754-3.528-3.344-7.179-5.807-10.3-1.932-2.456-4.386-4.44-7.025-6.095-5.468-3.44-11.641-5.535-17.195-8.813-2.801-1.644-5.412-3.603-7.528-6.081-2.556-2.985-4.323-6.54-5.961-10.082-1.636-3.535-3.164-7.143-5.249-10.447a34.748 34.748 0 0 0-6.467-7.552c-5.004-4.412-11.114-7.446-17.498-9.28-15.625-4.501-32.035-1.371-47.452 2.456-.91.228-1.821.456-2.737.692-.656-9.258 13.1-15.677 21.574-16.733 5.796-.721 11.542 1.6 17.376 1.771 29.562.888 49.381-8.015 61.165 26.742 1.316 3.891 2.402 8.025 5.098 11.125 12.312 12.232 45.566 6.399 44.618 31.882z"/><linearGradient id="n" x1="267.052" x2="436.102" y1="560.283" y2="665.21" gradientUnits="userSpaceOnUse"><stop offset="0" stop-color="#326ab3"/><stop offset="1" stop-color="#003780"/></linearGradient><path fill="url(#n)" d="M394.476 675.616c-24.462 7.248-47.511-15.005-30.369-40.885 11.629-13.166-1.783-22.627-14.068-26.512-6.096-1.936-13.644-2.712-16.597-8.389-4.96-12.804 12.285-27.799-14.068-35.794-14.87-4.519-43.756 7.054-47.368-12.83a3.967 3.967 0 0 1-.042-.287c14.644-3.731 29.964-7.236 45.03-4.344 6.615 1.27 13.077 3.717 18.627 7.576 2.711 1.882 5.19 4.113 7.3 6.659 2.347 2.836 4.097 6.053 5.665 9.375 1.654 3.516 3.138 7.127 5.129 10.476 1.75 2.949 3.924 5.568 6.622 7.699 4.878 3.848 10.757 6.076 16.279 8.811 2.805 1.397 5.58 2.936 8.037 4.904 2.806 2.26 4.929 5.063 6.642 8.223 1.869 3.455 3.33 7.123 5.467 10.429 2.058 3.199 4.743 5.929 7.658 8.355 5.25 4.388 11.246 7.822 16.474 12.238-.001-.001 1.101 26.142-26.418 34.296z"/><path fill="#FFF" d="m420.917 640.405-.024.914c-5.228-4.416-11.223-7.85-16.474-12.238-2.914-2.427-5.599-5.156-7.658-8.355-2.137-3.306-3.598-6.974-5.467-10.429-1.713-3.159-3.836-5.962-6.642-8.223-2.457-1.968-5.232-3.507-8.037-4.904-5.522-2.735-11.401-4.963-16.279-8.811-2.699-2.131-4.872-4.75-6.622-7.699-1.992-3.35-3.475-6.96-5.129-10.476-1.568-3.322-3.318-6.539-5.665-9.375-2.111-2.546-4.589-4.777-7.3-6.659-5.55-3.859-12.012-6.306-18.627-7.576-15.066-2.892-30.385.613-45.03 4.344a8.171 8.171 0 0 1-.084-.723c.916-.237 1.827-.464 2.737-.692 15.417-3.827 31.827-6.957 47.452-2.456 6.383 1.834 12.494 4.868 17.498 9.28a34.752 34.752 0 0 1 6.467 7.552c2.085 3.304 3.612 6.911 5.249 10.447 1.638 3.542 3.405 7.097 5.961 10.082 2.116 2.478 4.727 4.437 7.528 6.081 5.554 3.277 11.727 5.372 17.195 8.813 2.639 1.654 5.093 3.638 7.025 6.095 2.463 3.12 4.053 6.771 5.807 10.3 1.813 3.647 3.948 6.976 6.833 9.879 2.836 2.856 6.079 5.26 9.351 7.567 3.323 2.344 6.774 4.652 9.935 7.262z"/><linearGradient id="o" x1="607" x2="607" y1="166.093" y2="694.716" gradientUnits="userSpaceOnUse"><stop offset="0" stop-color="#c4e6ff"/><stop offset="1" stop-color="#73b2ff"/></linearGradient><path fill="url(#o)" d="M768.477 162.067h-322.98c-21.938 0-39.698 17.773-39.698 39.699V807.54c0 11.973 5.301 22.712 13.694 29.996.274.237.561.474.848.711 6.848 5.637 15.615 8.992 25.156 8.992h322.98c9.542 0 18.322-3.355 25.169-8.992 8.88-7.284 14.555-18.334 14.555-30.707V201.766c0-21.926-17.785-39.699-39.724-39.699zm31.318 630.008c0 23.024-19.744 41.682-44.089 41.682H458.294c-24.346 0-44.089-18.658-44.089-41.682V241.066c0-14.318 12.285-25.93 27.427-25.93h330.737c15.154 0 27.427 11.612 27.427 25.93v551.009z"/><path fill="#FFF" d="M799.795 241.066v551.009c0 23.024-19.744 41.682-44.089 41.682H458.294c-24.346 0-44.089-18.658-44.089-41.682V241.066c0-14.318 12.285-25.93 27.427-25.93h330.737c15.153 0 27.426 11.612 27.426 25.93z"/><path fill="#1F1C80" d="M755.706 820.037H458.293c-16.746 0-30.369-12.544-30.369-27.963V241.066c0-6.733 6.15-12.21 13.707-12.21h330.737c7.558 0 13.707 5.477 13.707 12.21v551.009c0 15.418-13.623 27.962-30.369 27.962zM441.631 231.35c-6.183 0-11.213 4.359-11.213 9.716v551.009c0 14.043 12.505 25.468 27.875 25.468h297.413c15.37 0 27.875-11.425 27.875-25.468V241.066c0-5.357-5.03-9.716-11.213-9.716H441.631z"/><path fill="#FFF" d="M469.809 189.879c0 7.05-5.724 12.773-12.776 12.773s-12.776-5.724-12.776-12.773c0-7.054 5.724-12.778 12.776-12.778s12.776 5.723 12.776 12.778z"/><linearGradient id="p" x1="451.192" x2="474.824" y1="181.73" y2="214.696" gradientUnits="userSpaceOnUse"><stop offset="0" stop-color="#c4e6ff"/><stop offset="1" stop-color="#73b2ff"/></linearGradient><path fill="url(#p)" d="M465.675 189.879c0 4.769-3.87 8.642-8.642 8.642s-8.644-3.873-8.644-8.642c0-4.771 3.873-8.644 8.644-8.644s8.642 3.872 8.642 8.644z"/><path fill="#FFF" d="M495.961 189.879c0 4.769-3.873 8.642-8.644 8.642s-8.644-3.873-8.644-8.642c0-4.771 3.873-8.644 8.644-8.644s8.644 3.872 8.644 8.644z"/><path fill="#3A67B3" d="M746.462 542.655c7.921-5.112 13.169-14.008 13.169-24.137 0-15.859-12.856-28.714-28.714-28.714-15.859 0-28.714 12.856-28.714 28.714 0 10.128 5.248 19.025 13.169 24.137l-6.473 53.67c-.481 3.989 2.633 7.499 6.649 7.499h30.737c4.017 0 7.13-3.511 6.649-7.499l-6.472-53.67z"/><linearGradient id="q" x1="607" x2="607" y1="280.885" y2="455.488" gradientUnits="userSpaceOnUse"><stop offset="0" stop-color="#c4e6ff"/><stop offset="1" stop-color="#73b2ff"/></linearGradient><path fill="url(#q)" d="M747.973 290.605v117.002c0 9.741-7.895 17.636-17.636 17.636H483.662c-9.741 0-17.636-7.895-17.636-17.636V290.605c0-9.741 7.895-17.636 17.636-17.636h246.675c9.741.001 17.636 7.896 17.636 17.636z"/><path fill="#414042" d="m555.252 272.97-89.226 92.094v-30.369l59.792-61.725zM747.973 294.497v66.726l-62.025 64.02h-64.643zM687.907 272.97 540.373 425.243h-56.711c-9.741 0-17.636-7.895-17.636-17.636v-11.262L585.56 272.97h102.347z"/><linearGradient id="r" x1="466.031" x2="747.968" y1="679.757" y2="679.757" gradientUnits="userSpaceOnUse"><stop offset="0" stop-color="#c4e6ff"/><stop offset="1" stop-color="#73b2ff"/></linearGradient><path fill="url(#r)" d="M742.844 684.882H471.155a5.124 5.124 0 1 1 0-10.248h271.689a5.125 5.125 0 0 1 0 10.248z"/><linearGradient id="s" x1="466.031" x2="747.968" y1="726.121" y2="726.121" gradientUnits="userSpaceOnUse"><stop offset="0" stop-color="#c4e6ff"/><stop offset="1" stop-color="#73b2ff"/></linearGradient><path fill="url(#s)" d="M742.844 731.246H471.155a5.124 5.124 0 1 1 0-10.248h271.689a5.125 5.125 0 0 1 0 10.248z"/><linearGradient id="t" x1="466.031" x2="747.968" y1="772.485" y2="772.485" gradientUnits="userSpaceOnUse"><stop offset="0" stop-color="#c4e6ff"/><stop offset="1" stop-color="#73b2ff"/></linearGradient><path fill="url(#t)" d="M742.844 777.61H471.155a5.124 5.124 0 1 1 0-10.248h271.689a5.125 5.125 0 0 1 0 10.248z"/><linearGradient id="u" x1="708.696" x2="805.972" y1="123.765" y2="123.765" gradientUnits="userSpaceOnUse"><stop offset="0" stop-color="#5d64c2"/><stop offset="1" stop-color="#251978"/></linearGradient><path fill="url(#u)" d="M777.962 80.338h-41.256c-15.47 0-28.01 12.541-28.01 28.01v58.843h13.381v-57.18c0-8.998 7.294-16.292 16.292-16.292h37.929c8.998 0 16.292 7.294 16.292 16.293v57.18h13.381v-58.843c.001-15.471-12.539-28.011-28.009-28.011z"/><linearGradient id="v" x1="678.297" x2="836.371" y1="201.447" y2="201.447" gradientUnits="userSpaceOnUse"><stop offset="0" stop-color="#ffdd4f"/><stop offset="1" stop-color="#ff8f5c"/></linearGradient><path fill="url(#v)" d="M678.297 162.809v21.499c0 43.651 35.386 79.037 79.037 79.037s79.037-35.386 79.037-79.037V162.81c0-12.845-10.413-23.258-23.258-23.258H701.555c-12.845-.002-23.258 10.412-23.258 23.257z"/><circle cx="759.982" cy="197.995" r="32.971" fill="#FFF"/><linearGradient id="w" x1="731.279" x2="788.686" y1="197.995" y2="197.995" gradientUnits="userSpaceOnUse"><stop offset="0" stop-color="#ffdd4f"/><stop offset="1" stop-color="#ff8f5c"/></linearGradient><circle cx="759.982" cy="197.995" r="28.703" fill="url(#w)"/><path fill="#FFF" d="M766.7 191.652a6.718 6.718 0 0 0-7.085-6.708c-3.451.184-6.248 3.056-6.348 6.51a6.705 6.705 0 0 0 3.246 5.942l-1.219 15.378c-.05.631.448 1.17 1.081 1.17h7.214c.633 0 1.131-.54 1.081-1.17l-1.219-15.378a6.704 6.704 0 0 0 3.249-5.744z"/><path fill="#1F357A" d="M1152.042 799.312c-.476 4.142-7.679 17.12-14.876 28.564-6.085 9.683-12.162 18.262-14.173 19.501-1.383.839-3.243.665-5.094-.265-5.019-2.472-10-10.378-5.246-17.453 2.691-4.006 5.011-8.632 5.465-13.107.484-4.732-1.111-9.312-6.553-12.842 6.825-4.513 11.164-12.427 14.497-21.731 0 0 16.553 5.971 23.235 12.245 1.838 1.717 2.934 3.448 2.745 5.088z"/><path fill="#1F357A" d="M1152.042 799.312c-.476 4.142-7.679 17.12-14.876 28.564 1.708-5.336 4.037-12.207 5.556-17.151 2.812-9.169-5.472-12.721-9.614-5.321-2.963 5.291-10.786 9.305-14.989 11.149.484-4.732-1.111-9.312-6.553-12.842 6.825-4.513 11.164-12.427 14.497-21.731 0 0 16.553 5.971 23.235 12.245 1.837 1.716 2.933 3.447 2.744 5.087zM935.471 841.014c-.385 2.366-1.187 4.165-2.592 4.883-3.795 1.95-19.743 3.137-33.342 3.386-9.849.181-18.473-.129-20.355-.99-1.398-.658-2.245-2.23-2.487-4.195-.703-5.314 2.948-13.477 11.104-13.447 5.026.015 10.385-.703 14.301-3.16 3.333-2.094 5.616-5.442 5.775-10.673.007-.265.007-.537.007-.809a21.6 21.6 0 0 0 1.466.559c5.941 2.041 12.744 1.738 19.985.249a94.221 94.221 0 0 0 3.545-.809s.204.839.514 2.237c1.036 4.779 3.205 16.079 2.079 22.769z"/><path fill="#1F357A" d="M935.471 841.014c-.385 2.366-1.187 4.165-2.592 4.883-3.795 1.95-19.743 3.137-33.342 3.386 1.799-.522 4.142-.877 7.158-.99 21.504-.831 23.953-19.426 13.802-17.944-5.971.869-13.311-1.096-18.398-2.857 3.333-2.094 5.616-5.442 5.775-10.673.491-.083.99-.174 1.474-.249 5.616-.983 10.726-1.89 11.64-2.094.567-.128 3.825.809 8.345 2.343 1.27.431 2.631.915 4.059 1.429 1.036 4.776 3.205 16.076 2.079 22.766z"/><path fill="#F9CBCB" d="M851.018 530.043c2.136 5.344 6.02 11.529 8.154 16.871-7.998 2.833-24.713 8.956-25.29 9.136-5.28 8.395-11.881 10.971-19.1 5.697-7.205-5.264 3.085-5.974 5.889-10.38.983-3.093-7.335-1.808-7.006-3.784.459-2.754 8.684-4.423 13.689-3.592 7.698-4.433 16.21-9.095 23.664-13.948z"/><linearGradient id="x" x1="831.728" x2="962.253" y1="485.842" y2="485.842" gradientUnits="userSpaceOnUse"><stop offset="0" stop-color="#c4e6ff"/><stop offset="1" stop-color="#73b2ff"/></linearGradient><path fill="url(#x)" d="M958.246 458.759c-2.069 5.194-4.363 11.952-7.122 19.215-5.82 15.376-13.69 33.044-25.734 43.132-10.883 9.105-36.7 19.043-58.236 26.774-9.55 3.42-19.504 6.568-25.693 8.865-.517-.182-1.983-2.459-3.618-5.393-2.794-4.988-6.105-11.902-6.114-13.705 9.174-5.164 42.859-29.337 61.515-44.116 5.363-2.846 8.803-20.572 15.821-39.189 1.591-4.224 3.366-8.5 5.398-12.654a89.834 89.834 0 0 1 1.546-3.069c1.492-2.811 3.1-5.553 4.851-8.166 21.865-32.524 52.421-9.488 37.386 28.306z"/><linearGradient id="y" x1="831.728" x2="919.245" y1="492.793" y2="492.793" gradientUnits="userSpaceOnUse"><stop offset="0" stop-color="#c4e6ff"/><stop offset="1" stop-color="#73b2ff"/></linearGradient><path fill="url(#y)" d="m918.137 439.691-.975 14.328s-2.794 30.507-5.665 51.994c-2.871 21.488-20.573 12.877-44.523 29.428-11.977 8.284-22.058 13.129-29.133 15.912-2.794-4.988-6.105-11.902-6.114-13.705 9.174-5.164 42.859-29.337 61.515-44.116 5.363-2.846 8.803-20.572 15.821-39.189 1.591-4.224 6.278-15.918 9.186-19.95 2.303-1.256-.112 5.298-.112 5.298z"/><path fill="#1F357A" d="M950.369 381.385c-.144.461-.31.937-.491 1.436-2.759 7.604-9.41 8.995-18.232 10.703-8.043 1.557-16.342-3.409-23.182-8.813l-.023-.023c-1.822-1.436-3.538-2.91-5.117-4.293-8.715-.892-13.485-8.957-7.302-15.329 2.351-2.426.612-4.951 1.565-7.725 2.328-6.757 15.254-8.874 21.535-6.569 2.918 1.066 5.404 2.6 8.261.779 7.06-2.139 12.646-.567 15.677 3.938 1.587 2.351 2.472 5.503 2.502 9.343 1.957 5.117 8.617 4.716 4.807 16.553z"/><path fill="#1F357A" d="M943.06 355.489c-5.057-1.308-12.094 3.091-17.574 4.626-6.349 1.776-8.587-2.071-15.094 1.179-6.508 3.258-4.014 10.552-4.014 10.552l2.086 12.865-.023-.023c-1.822-1.436-3.538-2.91-5.117-4.293-8.715-.892-13.485-8.957-7.302-15.329 2.351-2.426.612-4.951 1.565-7.725 2.328-6.757 15.254-8.874 21.535-6.569 2.918 1.066 5.404 2.6 8.261.779 7.06-2.139 12.646-.567 15.677 3.938z"/><path fill="#1F357A" d="M950.369 381.385c-.144.461-.31.937-.491 1.436-2.759 7.604-9.41 8.995-18.232 10.703-8.05 1.557-16.357-3.417-23.205-8.836 8.843-6.107 17.045-11.776 17.045-11.776s-2.23-7.03 3.243-7.77c5.473-.741 11.686 2.071 11.391 8.874-.273 6.205 6.024 8.473 10.249 7.369z"/><linearGradient id="z" x1="871.66" x2="1039.01" y1="691.218" y2="691.218" gradientUnits="userSpaceOnUse"><stop offset="0" stop-color="#326ab3"/><stop offset="1" stop-color="#003780"/></linearGradient><path fill="url(#z)" d="M1039.01 567.435c-.499 2.857-1.104 6.886-1.814 9.637-2.683 10.393-12.442 26.697-25.752 43.848-20.847 26.826-50.394 55.692-75.202 67.076 5.367 17.839 1.345 110.644 1.912 129.548-2.849 3.19-10.121 6.017-18.231 7.113-3.001.408-6.115.582-9.161.438-5.571-.242-10.93-1.519-14.928-4.233-7.218-22.827-30.242-136.049-22.661-154.462 13.001-31.55 40.764-57.612 67.824-80.613 8.027-6.825 15.987-13.371 23.477-19.721a568.438 568.438 0 0 0 10.174-8.776c21.549 3.712 42.88 6.743 64.362 10.145z"/><path fill="#C1D2E6" d="M936.242 687.995c5.37 17.84 1.342 110.645 1.911 129.549-2.847 3.187-10.117 6.013-18.227 7.115 5.704-9.338 17.819-29.776 10.136-43.086-9.959-17.253-.187-63.327-2.961-80.118s-16.367-22.224-16.367-22.224 14.545-.367 26.352-3.054c17.65-4.018 35.222-54.208 26.97-74.581-5.546-13.693-6.393-24.215-6.393-24.215l6.812-11.312 37.853 2.518s.482 34.32 9.114 52.331c-20.846 26.827-50.393 55.692-75.2 67.077z"/><linearGradient id="A" x1="978.896" x2="1136.104" y1="682.78" y2="682.78" gradientUnits="userSpaceOnUse"><stop offset="0" stop-color="#326ab3"/><stop offset="1" stop-color="#003780"/></linearGradient><path fill="url(#A)" d="M1129.449 799.116v.015c-4.21 6.614-10 12.646-16.145 15.223v.008c-.529.219-1.058.423-1.587.59-28.292-6.107-110.742-68.315-119.057-87.643-10.265-23.885-14.097-75.889-13.742-126.895.113-15.798.62-31.489 1.474-46.229 8.919-.733 23.802-.937 31.436-1.353 7.642-.423 9.101-.688 15.102-1.058 5.994-.393 11.157-.801 17.098-1.164a294.62 294.62 0 0 1 2.374 7.007c16.886 51.83 13.915 91.211 9.025 146.623 9.38 5.374 73.138 65.163 80.598 75.164.582 4.957-2.101 12.675-6.576 19.712z"/><path fill="#C1D2E6" d="M1129.446 799.115c5.507-17.649-30.039-23.14-45.142-51.806-16.286-30.911-48.367-33.457-48.367-33.457s10.893-5.048 12.183-16.91c.909-8.364-1.095-110.594-11.817-108.55-28.095 5.355-55.272-14.927-55.272-14.927l26.903-17.805 38.469 1.959c16.882 51.831 13.913 91.205 9.026 146.619 9.375 5.374 73.139 65.165 80.597 75.167.579 4.954-2.105 12.67-6.58 19.71z"/><linearGradient id="B" x1="913.785" x2="1046.402" y1="484.962" y2="484.962" gradientUnits="userSpaceOnUse"><stop offset="0" stop-color="#c4e6ff"/><stop offset="1" stop-color="#73b2ff"/></linearGradient><path fill="url(#B)" d="M1040.612 560.314a71.011 71.011 0 0 1-7.37 3.651c-6.342 2.729-12.933 4.611-19.653 6.455-8.126 2.23-16.214 3.447-24.324 3.915-10.091.582-20.227 0-30.552-1.255-3.378-.408-11.867-4.361-9.872-14.868 2.661-13.938-.249-25.548-5.344-36.403-1.897-4.044-4.097-7.99-6.425-11.913-4.059-6.825-8.511-13.59-12.419-20.718-6.077-11.073-10.854-23.031-10.869-37.514-.03-21.625 8.367-33.742 15.911-45.541v-.008c.136-.204.272-.416.4-.62 2.487-.975 10.144-3.265 14.369-10.136 12.177.733 22.548 3.825 31.618 9.403 4.709 2.887 9.07 6.448 13.145 10.696 4.422 4.596 8.526 10.008 12.389 16.251 4.127 6.667 14.664 30.726 19.221 42.964 8.368 22.479 18.413 51.437 24.891 73.894 2.073 7.205-.921 9.344-5.116 11.747z"/><path fill="#E0ECFF" d="M1040.612 560.314a71.011 71.011 0 0 1-7.37 3.651c-4.051-9.841-25.418-7.864-37.225-17.531-13.016-10.65-5.126-26.566 4.337-61.472 6.917-25.495-4.482-55.292-11.126-69.502 4.422 4.596 8.526 10.008 12.389 16.251 4.127 6.667 14.664 30.726 19.221 42.964 8.368 22.479 18.413 51.437 24.891 73.894 2.072 7.203-.922 9.342-5.117 11.745z"/><path fill="#F9CBCB" d="M944.458 395.361c-.174 4.165-3.099 8.163-6.274 10.756-4.377 3.56-9.244 4.445-8.08-.62-.65-1.625-1.292-3.25-1.95-4.875-.885-2.23-1.776-4.46-2.668-6.682 1.829-3.061 3.628-6.13 5.45-9.191 4.505 3.537 9.009 7.082 13.522 10.612z"/><path fill="#EBB2B2" d="M944.458 395.361c-.174 4.165-3.099 8.163-6.274 10.756.552-3.401 2.547-6.463 2.328-9.222-.294-3.689-3.945-3.704-7.596.537-1.406 1.633-3.152 2.608-4.762 3.19-.885-2.23-1.776-4.46-2.668-6.682 1.829-3.061 3.628-6.13 5.45-9.191 4.505 3.537 9.009 7.082 13.522 10.612z"/><path fill="#F9CBCB" d="M901.125 374.909c4.546 9.257 7.313 22.459 19.886 24.405 7.959 1.232 15.92-11.577 12.928-19.763 1.134-4.491.719-10.53-4.542-11.453-3.751-.659-2.572 6.991-6.974 7.126-1.671.052-3.542-10.304-8.422-8.835-4.879 1.469-7.614 7.096-12.876 8.52z"/><linearGradient id="C" x1="6165.885" x2="6406.555" y1="-285.489" y2="-285.489" gradientTransform="rotate(159.785 3494.22 -342.699)" gradientUnits="userSpaceOnUse"><stop offset="0" stop-color="#ffdd4f"/><stop offset="1" stop-color="#ff8f5c"/></linearGradient><path fill="url(#C)" d="m808.469 616.415.066-.012c1.228-.256 2.095-1.355 1.862-2.6l-2.057-11.015a11.745 11.745 0 0 0-13.711-9.395c-.249.047-.496.106-.729.163-.286.067-.57.147-.849.253a3.579 3.579 0 0 0-.497.174c-.431.162-.855.363-1.263.575-.15.069-.284.148-.43.243a3.879 3.879 0 0 0-.33.197c-.208.12-.401.251-.591.396a8.845 8.845 0 0 0-.56.417c.002.013-.01.015-.01.015a11.747 11.747 0 0 0-4.137 11.277l2.052 10.989a2.24 2.24 0 0 0 2.615 1.792l2.15-.402a2.998 2.998 0 0 1 3.502 2.4l1.166 6.242c.012.066.027.144.026.212.017.092.021.186.012.283a1.69 1.69 0 0 1-.001.285c-.009.096-.018.193-.043.279-.009.097-.034.183-.058.269a1.483 1.483 0 0 1-.085.274c-.087.26-.219.502-.394.725-.054.078-.109.142-.176.223-.236.261-.53.506-.864.677-.15.068-.313.14-.481.185-.116.035-.219.068-.336.09l-23.394 4.369a2.544 2.544 0 0 1-2.959-2.039l-1.332-7.134a2.536 2.536 0 0 1 2.024-2.97l.052-.01c.275-.051.531-.14.765-.265.969-.547 1.51-1.72 1.35-2.871l-2.552-13.664a2.653 2.653 0 0 0-1.105-1.707c-.141-.096-.28-.192-.442-.257-.12-.059-.263-.1-.393-.144-.042-.006-.1-.022-.141-.028a3.175 3.175 0 0 0-.528-.064c-.136-.002-.283.012-.416.023l-.052.01c-.805.123-1.577-.086-2.149-.535a3.544 3.544 0 0 1-.349-.342s-.013.002-.002-.013a1.36 1.36 0 0 1-.239-.335 2.309 2.309 0 0 1-.298-.8l-1.856-9.94-9.311 1.739c-3.383.632-6.719.21-9.665-1.031a16.292 16.292 0 0 1-3.035-1.645 16.91 16.91 0 0 1-7.08-10.878c-1.719-9.206 4.349-18.061 13.554-19.78l220.228-41.129 6.225 33.334-142.583 26.629 1.815 9.717a2.772 2.772 0 0 1-2.218 3.237l-1.927.36a2.699 2.699 0 0 0-2.168 3.146l2.552 13.664a2.707 2.707 0 0 0 3.157 2.152l2.714-.507a1.968 1.968 0 0 1 2.301 1.565l1.545 8.275a1.97 1.97 0 0 1-1.578 2.303l-23.958 4.474a3.006 3.006 0 0 1-3.502-2.4l-1.166-6.242a3.033 3.033 0 0 1 .092-1.469c.062-.174.125-.349.219-.502.201-.377.48-.7.826-.955a.815.815 0 0 1 .166-.126.613.613 0 0 1 .195-.118c.084-.057.172-.1.273-.133.087-.043.176-.074.266-.104.075-.028.154-.043.23-.071z"/><path fill="#E6E7E8" d="M829.122 590.101a2.699 2.699 0 0 0-2.158 3.149l.016.083 1.245-.233a2.775 2.775 0 0 0 2.219-3.238l-.001-.008-1.321.247zM789.369 595.824a11.707 11.707 0 0 1 5.26-2.435c6.382-1.192 12.522 3.015 13.714 9.397l1.995 10.681a2.99 2.99 0 0 1 1.089-.438 2.24 2.24 0 0 0 1.792-2.615l-2.052-10.987c-1.192-6.382-7.332-10.589-13.714-9.397a11.729 11.729 0 0 0-8.084 5.794zM739.982 592.946c1.696 1.333 6.055 1.562 10.331 1.825l219.879-41.064-.779-4.173-229.431 43.412zM796.739 628.336l-22.985 4.293a2.544 2.544 0 0 1-2.967-2.033l-1.317-7.05a2.636 2.636 0 0 1-.808.303 2.544 2.544 0 0 0-2.033 2.967l1.333 7.139a2.544 2.544 0 0 0 2.967 2.034l23.392-4.369a2.991 2.991 0 0 0 2.418-3.284zM836.402 621.761l-.15-.805-22.557 4.213a3.001 3.001 0 0 1-3.501-2.399l-1.165-6.24c-.016-.087-.013-.173-.022-.259a2.23 2.23 0 0 1-.403.118 3.001 3.001 0 0 0-2.399 3.501l1.165 6.24a3.001 3.001 0 0 0 3.501 2.399l23.961-4.475a1.966 1.966 0 0 0 1.57-2.293z"/><path fill="#E6E7E8" d="m770.826 620.718-2.554-13.677a2.653 2.653 0 0 0-1.105-1.707 3.053 3.053 0 0 0-.442-.257c-.133-.056-.263-.1-.393-.144-.042-.006-.086-.024-.141-.028a3.175 3.175 0 0 0-.528-.064c-.136-.002-.283.012-.416.023l-.131.024a2.46 2.46 0 0 1-2.071-.55 3.544 3.544 0 0 1-.349-.342s-.013.002-.002-.013a1.36 1.36 0 0 1-.239-.335 2.309 2.309 0 0 1-.298-.8l-1.856-9.94-9.311 1.739c-3.383.632-6.719.21-9.665-1.031l21.795-4.07 1.859 9.953a2.545 2.545 0 0 0 2.97 2.024 2.699 2.699 0 0 1 3.146 2.167l2.55 13.651a2.686 2.686 0 0 1-2.154 3.143 2.918 2.918 0 0 0-.665.234z"/><linearGradient id="D" x1="6177.728" x2="6197.469" y1="-291.92" y2="-291.92" gradientTransform="rotate(159.785 3494.22 -342.699)" gradientUnits="userSpaceOnUse"><stop offset="0" stop-color="#ffdd4f"/><stop offset="1" stop-color="#ff8f5c"/></linearGradient><path fill="url(#D)" d="m946.592 561.455-7.323-39.211a3.781 3.781 0 0 1 3.023-4.411l5.48-1.023a3.781 3.781 0 0 1 4.411 3.023l7.323 39.211a3.781 3.781 0 0 1-3.023 4.411l-5.48 1.023a3.782 3.782 0 0 1-4.411-3.023z"/><path fill="#E6E7E8" d="M959.095 557.721c-.953 1.282-2.357 2.234-4.051 2.55a6.569 6.569 0 0 1-7.663-5.251l-6.3-33.731a6.562 6.562 0 0 1-.101-1.418c-1.053 1.417-1.55 3.24-1.2 5.112l6.299 33.731a6.569 6.569 0 0 0 7.663 5.251c3.09-.576 5.258-3.228 5.353-6.244z"/><linearGradient id="E" x1="6203.807" x2="6246.827" y1="-284.603" y2="-284.603" gradientTransform="rotate(159.785 3494.22 -342.699)" gradientUnits="userSpaceOnUse"><stop offset="0" stop-color="#ffdd4f"/><stop offset="1" stop-color="#ff8f5c"/></linearGradient><path fill="url(#E)" d="M907.152 523.723c11.643-2.174 23.012 6.401 25.394 19.154 2.382 12.753-5.126 24.854-16.769 27.028-11.643 2.174-23.012-6.401-25.394-19.154s5.127-24.853 16.769-27.028z"/><path fill="#E6E7E8" d="M931.773 555.209c-3.041 4.768-7.758 8.245-13.483 9.314-11.643 2.174-23.012-6.401-25.394-19.154a25.034 25.034 0 0 1 .773-12.332c-3.143 4.927-4.496 11.233-3.286 17.714 2.382 12.753 13.751 21.328 25.394 19.154 7.71-1.44 13.584-7.243 15.996-14.696z"/><linearGradient id="F" x1="6058.386" x2="6178.368" y1="-306.118" y2="-306.118" gradientTransform="rotate(159.785 3494.22 -342.699)" gradientUnits="userSpaceOnUse"><stop offset="0" stop-color="#ffdd4f"/><stop offset="1" stop-color="#ff8f5c"/></linearGradient><path fill="url(#F)" d="M1042.876 589.8c23.858-4.456 39.643-27.491 35.187-51.349a43.748 43.748 0 0 0-9.214-19.79 43.743 43.743 0 0 0 1.451-21.782c-4.456-23.859-27.491-39.644-51.349-35.188-23.853 4.455-39.636 27.482-35.189 51.335a22.005 22.005 0 0 0-7.136.144c-11.988 2.239-19.92 13.814-17.681 25.802 2.239 11.988 13.814 19.92 25.802 17.681a22.003 22.003 0 0 0 6.716-2.447c.024.135.04.27.065.405 4.455 23.859 27.49 39.645 51.348 35.189zm-2.204-11.802c-17.35 3.24-34.102-8.239-37.343-25.59a31.846 31.846 0 0 1-.197-10.525c9.138 5.918 20.46 8.497 31.98 6.345 11.521-2.152 21.149-8.643 27.535-17.46a31.849 31.849 0 0 1 3.614 9.887c3.24 17.35-8.24 34.103-25.589 37.343zm-11.754-62.933c9.388-1.753 18.597.81 25.589 6.274-4.548 7.62-12.211 13.334-21.599 15.087-9.388 1.753-18.597-.81-25.589-6.275 4.548-7.619 12.211-13.333 21.599-15.086zm-7.764-41.572c17.35-3.24 34.102 8.239 37.343 25.59.667 3.572.702 7.116.198 10.525-9.138-5.918-20.46-8.497-31.981-6.345s-21.149 8.643-27.535 17.46a31.843 31.843 0 0 1-3.614-9.886c-3.24-17.351 8.24-34.104 25.589-37.344zm-50.408 63.275c-1.024-5.481 2.603-10.772 8.083-11.796 5.481-1.024 10.773 2.602 11.796 8.083 1.023 5.48-2.603 10.772-8.084 11.796-5.479 1.024-10.771-2.603-11.795-8.083z"/><path fill="#E6E7E8" d="m1069.706 515.669.001.001.004-.019-.005.018zM1008.176 527.16c.247.193.504.374.757.56 4.643-6.39 11.627-11.094 19.985-12.655 9.056-1.691 17.939.642 24.832 5.714a32.317 32.317 0 0 0 1.614-2.432c-6.992-5.465-16.201-8.028-25.589-6.274-9.388 1.753-17.051 7.467-21.599 15.087zM1022.012 470.501c-12.856 2.401-22.481 12.223-25.291 24.208 3.606-10.601 12.666-19.018 24.434-21.216 17.35-3.24 34.102 8.239 37.343 25.59.452 2.42.592 4.824.492 7.185.187.117.379.227.563.347a31.846 31.846 0 0 0-.198-10.525c-3.241-17.35-19.994-28.829-37.343-25.589zM1065.963 553.789a31.807 31.807 0 0 0 1.155-16.127 31.849 31.849 0 0 0-3.614-9.887c-6.386 8.817-16.014 15.309-27.535 17.46-11.521 2.152-22.843-.427-31.98-6.345a31.852 31.852 0 0 0-.294 3.339c9.039 5.665 20.129 8.107 31.417 5.999 11.521-2.152 21.149-8.643 27.535-17.46a31.849 31.849 0 0 1 3.614 9.887 31.817 31.817 0 0 1-.298 13.134z"/><path fill="#E6E7E8" d="M1042.876 589.8c17.432-3.256 30.543-16.434 34.609-32.602-4.854 14.783-17.407 26.557-33.751 29.61-23.858 4.456-46.893-11.33-51.349-35.188-.025-.135-.041-.27-.065-.405a22.003 22.003 0 0 1-6.716 2.447c-11.988 2.239-23.563-5.693-25.802-17.681a21.98 21.98 0 0 1 .09-8.522 21.96 21.96 0 0 0-.947 11.514c2.239 11.988 13.814 19.92 25.802 17.681a22.003 22.003 0 0 0 6.716-2.447c.024.135.04.27.065.405 4.455 23.858 27.49 39.644 51.348 35.188z"/><path fill="#E6E7E8" d="M971.507 530.699c1.327-2.88 3.976-5.101 7.322-5.726 5.481-1.024 10.773 2.602 11.796 8.083a10.07 10.07 0 0 1 .097 3.077 10.044 10.044 0 0 0 .76-6.069c-1.024-5.481-6.315-9.107-11.796-8.083-4.438.828-7.658 4.456-8.179 8.718zM984.618 510.034a43.747 43.747 0 0 1 .582-18.736 43.726 43.726 0 0 0-1.895 18.602c.44.036.88.073 1.313.134z"/><linearGradient id="G" x1="6194.881" x2="6213.767" y1="-289.079" y2="-289.079" gradientTransform="rotate(159.785 3494.22 -342.699)" gradientUnits="userSpaceOnUse"><stop offset="0" stop-color="#ffdd4f"/><stop offset="1" stop-color="#ff8f5c"/></linearGradient><path fill="url(#G)" d="m929.404 561.829-6.3-33.731a6.569 6.569 0 0 1 12.914-2.412l6.3 33.731a6.568 6.568 0 1 1-12.914 2.412z"/><path fill="#E6E7E8" d="M942.334 561.562a6.502 6.502 0 0 1-3.169 1.586 6.569 6.569 0 0 1-7.663-5.251l-6.299-33.731c-.136-.731-.117-1.448-.016-2.145-1.645 1.481-2.518 3.742-2.082 6.077l6.3 33.731a6.568 6.568 0 0 0 7.663 5.251c2.834-.529 4.873-2.814 5.266-5.518z"/><linearGradient id="H" x1="6237.424" x2="6256.31" y1="-281.851" y2="-281.851" gradientTransform="rotate(159.785 3494.22 -342.699)" gradientUnits="userSpaceOnUse"><stop offset="0" stop-color="#ffdd4f"/><stop offset="1" stop-color="#ff8f5c"/></linearGradient><path fill="url(#H)" d="m886.984 569.751-6.3-33.731a6.569 6.569 0 0 1 12.914-2.412l6.3 33.731a6.569 6.569 0 0 1-12.914 2.412z"/><path fill="#E6E7E8" d="M899.914 569.484a6.502 6.502 0 0 1-3.169 1.586 6.569 6.569 0 0 1-7.663-5.251l-6.299-33.731c-.136-.731-.117-1.448-.016-2.145-1.645 1.481-2.518 3.742-2.081 6.077l6.3 33.731a6.568 6.568 0 0 0 7.663 5.251c2.833-.529 4.873-2.814 5.265-5.518z"/><linearGradient id="I" x1="6273.105" x2="6291.992" y1="-275.789" y2="-275.789" gradientTransform="rotate(159.785 3494.22 -342.699)" gradientUnits="userSpaceOnUse"><stop offset="0" stop-color="#ffdd4f"/><stop offset="1" stop-color="#ff8f5c"/></linearGradient><path fill="url(#I)" d="m851.407 576.396-6.3-33.731a6.569 6.569 0 0 1 12.914-2.412l6.3 33.731a6.569 6.569 0 0 1-12.914 2.412z"/><path fill="#E6E7E8" d="M864.337 576.128a6.502 6.502 0 0 1-3.169 1.586 6.569 6.569 0 0 1-7.663-5.251l-6.299-33.731c-.136-.731-.117-1.448-.016-2.145-1.645 1.481-2.518 3.742-2.081 6.077l6.3 33.731a6.568 6.568 0 0 0 7.663 5.251c2.833-.529 4.872-2.814 5.265-5.518z"/><path fill="#F9CBCB" d="M885.653 548.488c1.771 5.476 5.983 12.149 7.752 17.623-8.171 2.287-22.557 8.282-24.147 8.681-5.834 8.02-22.082 10.875-22.209 1.413-.094-6.99 6.097-1.88 9.191-6.087 1.189-3.02-6.469-3.384-6.007-5.334.643-2.717 8.388-3.63 13.325-2.465 5.898-4.295 14.331-9.492 22.095-13.831z"/><linearGradient id="J" x1="867.299" x2="986.556" y1="495.623" y2="495.623" gradientUnits="userSpaceOnUse"><stop offset="0" stop-color="#c4e6ff"/><stop offset="1" stop-color="#73b2ff"/></linearGradient><path fill="url(#J)" d="M984.686 459.504c-4.324 16.871-8.935 49.026-24.641 66.018-13.893 15.042-59.237 37.96-78.278 47.945l-7.173-9.516-7.294-9.675c10.469-9.456 51.724-42.48 58.58-47.763 3.107-12.472 5.155-44.415 18.118-70.311 6.364-12.714 14.792-18.322 22.464-18.421 13.492-.19 24.656 16.613 18.224 41.723z"/><path fill="#E0ECFF" d="M984.686 459.504c-4.324 16.871-8.935 49.026-24.641 66.018-13.893 15.042-59.237 37.96-78.278 47.945l-7.173-9.516c5.669-1.149 12.993-3.16 21.421-6.659 20.144-8.36 34.339-35.239 48.799-38.882 14.467-3.651 15.714-33.334 27.838-62.019 9.124-21.588-.748-33.863-6.19-38.61 13.492-.19 24.656 16.613 18.224 41.723z"/><path fill="#1F1C80" d="M1283.793 847.239H178.857a1.047 1.047 0 0 0 0 2.094h1104.936a1.047 1.047 0 0 0 0-2.094zM154.333 849.333H80.207a1.047 1.047 0 0 1 0-2.094h74.126a1.047 1.047 0 0 1 0 2.094zM815.241 887.782H514.134a1.047 1.047 0 0 1 0-2.094h301.107a1.047 1.047 0 0 1 0 2.094zM925.338 887.782H847.95a1.047 1.047 0 0 1 0-2.094h77.388a1.047 1.047 0 1 1 0 2.094z"/><linearGradient id="K" x1="976.467" x2="1080.15" y1="304.309" y2="304.309" gradientUnits="userSpaceOnUse"><stop offset="0" stop-color="#ff9666"/><stop offset="1" stop-color="#c42d40"/></linearGradient><path fill="url(#K)" d="M984.413 345.467c16.504 2.345 32.4-7.821 14.93-18.17-11.296-6.691-23.66-18.925-20.78-33.358 5.94-39.84 69.032-42.987 86.362-12.77 23.278 40.588-44.078 82.962-80.512 64.298zm95.674-49.729a39.025 39.025 0 0 0-.7-6.039 40.453 40.453 0 0 0-4.089-11.392c-3.649-6.771-9.342-12.325-16.131-15.925-3.753-1.99-7.789-3.323-12.015-3.765-.463-.048-.538.679-.108.797 6.945 1.898 13.496 5.078 18.744 10.076a37.664 37.664 0 0 1 10.787 19.127c.468 2.107.76 4.25.877 6.405.116 2.15-.236 4.315-.1 6.446.085 1.331 1.972 1.671 2.37.321.555-1.884.438-4.106.365-6.051zm-1.531 13.702a10.684 10.684 0 0 0-.066-.504c-.03-.184-.136-.281-.195-.444-.066-.183-.343-.32-.491-.13-.089.114-.216.17-.307.29-.088.117-.153.258-.226.384-.152.259-.295.525-.437.791-.317.597-.537 1.243-.801 1.864.054-.127-.106.235-.124.273a17.404 17.404 0 0 1-1.124 2.069c-.084.133-.177.261-.259.395-.165.271-.208.503-.246.815-.109.906 1.068 1.43 1.763 1.012.635-.382.97-1.25 1.279-1.9a20.13 20.13 0 0 0 .812-1.964c.223-.636.408-1.299.45-1.977.02-.318.007-.656-.028-.974zm-84.097 23.225c-.869-.503-1.926-.732-2.846-1.146a26.936 26.936 0 0 1-7.522-5.057c-1.47-1.398-2.814-2.913-3.958-4.591-1.137-1.667-2.235-3.451-3.042-5.301-.153-.351-.716-.1-.611.258.609 2.091 1.342 4.011 2.488 5.872 1.126 1.829 2.462 3.564 3.985 5.082a29.238 29.238 0 0 0 4.97 3.976 27.05 27.05 0 0 0 2.908 1.605c.983.465 2.044 1.014 3.127 1.154 1.019.131 1.291-1.394.501-1.852z"/><path fill="#FFF" d="M1022.997 314.366c0-2.448.359-5.117 1.082-8.007.721-2.89 1.766-6.401 3.134-10.535l.569-1.745c1.063-3.492 1.596-6.421 1.596-8.789 0-3.732-1.139-5.598-3.418-5.598-1.443 0-2.165.903-2.165 2.709 0 .442.266 1.526.798 3.251 0 .041-.19.161-.569.361-1.293.602-2.242.903-2.848.903-2.127 0-3.19-1.344-3.19-4.033v-.602c0-1.043.208-1.935.627-2.679.416-.742 1.196-1.394 2.336-1.957 1.29-.562 2.885-.843 4.784-.843 1.67 0 3.114.161 4.329.482 1.215.321 2.203.763 2.962 1.324 1.215.963 1.974 2.388 2.279 4.274.075.442.114 1.225.114 2.348 0 3.532-1.139 7.385-3.419 11.558-.988 1.726-1.822 3.904-2.506 6.532a32.263 32.263 0 0 0-1.025 8.157c0 2.208.037 3.551.114 4.033-1.367 0-2.127.041-2.278.12-.153.041-.342.06-.57.06-1.522 0-2.433-.441-2.736-1.324zm0 7.404c-.837-.401-1.254-.903-1.254-1.505 0-.561.456-1.093 1.368-1.595.911-.502 1.937-.753 3.076-.753.911 0 1.822.261 2.734.783.912.522 1.368 1.023 1.368 1.505 0 1.526-1.521 2.287-4.558 2.287-1.139 0-2.051-.241-2.734-.722z"/><linearGradient id="L" x1="298.89" x2="487.694" y1="764.539" y2="764.539" gradientUnits="userSpaceOnUse"><stop offset="0" stop-color="#ff9666"/><stop offset="1" stop-color="#c42d40"/></linearGradient><path fill="url(#L)" d="m486.729 836.545-87.262-151.143c-2.744-4.753-9.604-4.753-12.348 0l-87.262 151.143c-2.744 4.753.686 10.694 6.174 10.694h174.525c5.487 0 8.917-5.941 6.173-10.694z"/><path fill="#FFF" d="m473.038 831.541-76.083-131.78c-1.628-2.819-5.697-2.819-7.324 0l-76.083 131.78c-1.628 2.819.407 6.343 3.662 6.343h152.167c3.254 0 5.288-3.524 3.661-6.343z"/><path fill="#DDE4F0" d="m473.038 831.541-76.083-131.78c-1.628-2.819-5.697-2.819-7.324 0l-.408.706 73.155 126.707c1.627 2.819-.407 6.343-3.662 6.343h-145.73c-.072 2.259 1.707 4.367 4.224 4.367h152.167c3.254 0 5.288-3.524 3.661-6.343z"/><path fill="#DDE4F0" d="M393.292 804.174c-3.918 0-7.245-3.058-7.575-6.962l-4.8-56.803a7.618 7.618 0 0 1 1.978-5.784 7.623 7.623 0 0 1 5.597-2.458h9.601a7.62 7.62 0 0 1 5.597 2.458 7.618 7.618 0 0 1 1.978 5.784l-4.8 56.803c-.331 3.904-3.658 6.962-7.576 6.962z"/><linearGradient id="M" x1="383.351" x2="403.233" y1="768.17" y2="768.17" gradientUnits="userSpaceOnUse"><stop offset="0" stop-color="#ff9666"/><stop offset="1" stop-color="#c42d40"/></linearGradient><path fill="url(#M)" d="M398.092 734.628h-9.601a5.14 5.14 0 0 0-5.122 5.573l4.8 56.803a5.14 5.14 0 0 0 10.244 0l4.8-56.803a5.138 5.138 0 0 0-5.121-5.573z"/><path fill="#DDE4F0" d="M393.292 824.173c-4.744 0-8.603-3.859-8.603-8.603s3.859-8.603 8.603-8.603 8.603 3.86 8.603 8.603-3.859 8.603-8.603 8.603z"/><linearGradient id="N" x1="387.151" x2="399.434" y1="815.569" y2="815.569" gradientUnits="userSpaceOnUse"><stop offset="0" stop-color="#ff9666"/><stop offset="1" stop-color="#c42d40"/></linearGradient><path fill="url(#N)" d="M387.151 815.569a6.141 6.141 0 1 1 12.282 0 6.141 6.141 0 0 1-12.282 0z"/><linearGradient id="O" x1="316.892" x2="332.23" y1="197.047" y2="203.295" gradientUnits="userSpaceOnUse"><stop offset="0" stop-color="#ff9666"/><stop offset="1" stop-color="#c42d40"/></linearGradient><path fill="url(#O)" d="M328.433 198.469c.337.545.445 1.202.287 1.848a2.408 2.408 0 0 1-1.681 1.757l-8.145 2.375a2.409 2.409 0 0 1-2.362-.577 2.408 2.408 0 0 1-.68-2.334l2.015-8.241a2.408 2.408 0 0 1 1.681-1.757 2.405 2.405 0 0 1 2.361.578l6.13 5.866c.154.148.286.311.394.485zm-10.66 3.914a.505.505 0 0 0 .585.227l8.145-2.375a.508.508 0 0 0 .356-.372.504.504 0 0 0-.144-.493l-6.13-5.866a.503.503 0 0 0-.499-.122.505.505 0 0 0-.356.371l-2.015 8.241c-.042.169.003.3.058.389z"/><linearGradient id="P" x1="1105.343" x2="1120.681" y1="621.477" y2="627.726" gradientUnits="userSpaceOnUse"><stop offset="0" stop-color="#ff9666"/><stop offset="1" stop-color="#c42d40"/></linearGradient><path fill="url(#P)" d="M1116.883 622.9c.337.545.445 1.202.287 1.849a2.408 2.408 0 0 1-1.681 1.757l-8.145 2.375a2.409 2.409 0 0 1-2.362-.577 2.41 2.41 0 0 1-.681-2.334l2.015-8.241a2.408 2.408 0 0 1 1.681-1.757 2.405 2.405 0 0 1 2.361.578l6.13 5.866c.156.146.287.309.395.484zm-10.659 3.913a.505.505 0 0 0 .585.227l8.145-2.375a.508.508 0 0 0 .356-.372.504.504 0 0 0-.144-.493l-6.13-5.866a.504.504 0 0 0-.5-.122.505.505 0 0 0-.356.371l-2.015 8.241c-.041.169.004.3.059.389z"/><linearGradient id="Q" x1="322.452" x2="331.931" y1="680.231" y2="690.197" gradientUnits="userSpaceOnUse"><stop offset="0" stop-color="#ffdd4f"/><stop offset="1" stop-color="#ff8f5c"/></linearGradient><path fill="url(#Q)" d="m329.336 684.884 2.996-2.996a1.742 1.742 0 0 0-2.463-2.463l-2.996 2.996-2.996-2.996a1.742 1.742 0 0 0-2.463 2.463l2.996 2.996-2.991 2.991a1.742 1.742 0 0 0 2.462 2.463l2.991-2.991 2.991 2.991c.34.34.786.51 1.231.51a1.742 1.742 0 0 0 1.231-2.973l-2.989-2.991z"/><linearGradient id="R" x1="978.602" x2="988.081" y1="186.558" y2="196.523" gradientUnits="userSpaceOnUse"><stop offset="0" stop-color="#ffdd4f"/><stop offset="1" stop-color="#ff8f5c"/></linearGradient><path fill="url(#R)" d="m985.486 191.211 2.996-2.996a1.742 1.742 0 0 0-2.463-2.463l-2.996 2.996-2.996-2.996a1.742 1.742 0 0 0-2.463 2.463l2.996 2.996-2.991 2.991a1.742 1.742 0 0 0 2.462 2.463l2.991-2.991 2.991 2.991c.34.34.786.51 1.231.51a1.742 1.742 0 0 0 1.231-2.973l-2.989-2.991z"/><linearGradient id="S" x1="237.356" x2="251.042" y1="413.154" y2="413.154" gradientUnits="userSpaceOnUse"><stop offset="0" stop-color="#5d64c2"/><stop offset="1" stop-color="#251978"/></linearGradient><path fill="url(#S)" d="M244.199 419.997a6.851 6.851 0 0 1-6.843-6.843 6.851 6.851 0 0 1 6.843-6.843 6.851 6.851 0 0 1 6.843 6.843 6.851 6.851 0 0 1-6.843 6.843zm0-11.544a4.708 4.708 0 0 0-4.702 4.702 4.708 4.708 0 0 0 4.702 4.702 4.708 4.708 0 0 0 4.702-4.702 4.708 4.708 0 0 0-4.702-4.702z"/><linearGradient id="T" x1="840.205" x2="853.891" y1="465.389" y2="465.389" gradientUnits="userSpaceOnUse"><stop offset="0" stop-color="#5d64c2"/><stop offset="1" stop-color="#251978"/></linearGradient><path fill="url(#T)" d="M847.048 472.232a6.851 6.851 0 0 1-6.843-6.843 6.851 6.851 0 0 1 6.843-6.843 6.851 6.851 0 0 1 6.843 6.843 6.851 6.851 0 0 1-6.843 6.843zm0-11.544a4.708 4.708 0 0 0-4.702 4.702 4.708 4.708 0 0 0 4.702 4.702 4.707 4.707 0 0 0 4.701-4.702 4.705 4.705 0 0 0-4.701-4.702z"/><path fill="#1F1C80" d="M730.338 426.49H483.661c-10.411 0-18.882-8.47-18.882-18.882V290.605c0-10.412 8.471-18.882 18.882-18.882h246.676c10.411 0 18.883 8.47 18.883 18.882v117.002c0 10.412-8.471 18.883-18.882 18.883zM483.661 274.217c-9.036 0-16.388 7.352-16.388 16.388v117.002c0 9.036 7.352 16.388 16.388 16.388h246.676c9.036 0 16.388-7.352 16.388-16.388V290.605c0-9.036-7.352-16.388-16.388-16.388H483.661z"/></svg>